<?xml version="1.0" encoding="UTF-8"?>
<svg width="40px" height="40px" viewBox="0 0 40 40" version="1.1" xmlns="http://www.w3.org/2000/svg" xmlns:xlink="http://www.w3.org/1999/xlink">
    <!-- Generator: Sketch 52.1 (67048) - http://www.bohemiancoding.com/sketch -->
    <title>Show/白条</title>
    <desc>Created with Sketch.</desc>
    <defs>
        <linearGradient x1="111.043837%" y1="-43.6588542%" x2="20.8094618%" y2="116.317472%" id="linearGradient-1">
            <stop stop-color="#E3ECF0" offset="0%"></stop>
            <stop stop-color="#9DB9D4" offset="100%"></stop>
        </linearGradient>
        <path d="M34.6112606,2.77434093 C33.4712691,3.01943025 32.6166962,4.03424195 32.6166962,5.24890218 C32.6166962,6.64672022 33.7484208,7.77987563 35.1444739,7.77987563 L35.1444739,9.33739775 C33.7484208,9.33739775 32.6166962,10.4705532 32.6166962,11.8683712 C32.6166962,13.2661892 33.7484208,14.3993447 35.1444739,14.3993447 L35.1444739,15.9568668 C33.7484208,15.9568668 32.6166962,17.0900222 32.6166962,18.4878402 C32.6166962,19.665317 33.4197491,20.6549936 34.5073862,20.9377457 C33.7952178,22.0408073 32.5551217,22.7710261 31.1444739,22.7710261 L4.14447393,22.7710261 C2.73382612,22.7710261 1.49373005,22.0408073 0.78156162,20.9377457 C1.86919874,20.6549936 2.67225171,19.665317 2.67225171,18.4878402 C2.67225171,17.0900222 1.54052705,15.9568668 0.144473932,15.9568668 L0.144473932,14.3993447 C1.54052705,14.3993447 2.67225171,13.2661892 2.67225171,11.8683712 C2.67225171,10.4705532 1.54052705,9.33739775 0.144473932,9.33739775 L0.144473932,7.77987563 C1.54052705,7.77987563 2.67225171,6.64672022 2.67225171,5.24890218 C2.67225171,4.03424195 1.8176788,3.01943025 0.677687288,2.77434093 C1.36883308,1.57691039 2.66254132,0.771026072 4.14447393,0.771026072 L31.1444739,0.771026072 C32.6264065,0.771026072 33.9201148,1.57691039 34.6112606,2.77434093 Z" id="path-2"></path>
        <path d="M17.5147152,5.44267118 L21.1051105,5.44267118 C21.9029801,5.48316444 22.2021767,5.86784464 22.0027093,6.59672332 C21.6835614,7.5280683 21.0452753,8.49989196 20.0878318,9.51222346 C21.1250623,9.91715606 22.2021701,10.2006046 23.3191875,10.3625777 C23.9973767,10.7675103 24.1569482,11.4558854 23.7979069,12.4277236 C23.558546,12.8731495 23.3191887,13.0958591 23.0798279,13.0958591 C22.7207865,12.3669804 22.062554,11.9823002 21.1051105,11.9418069 L18.8910334,11.9418069 C18.7314595,11.2129282 18.0732269,10.828248 16.916316,10.7877548 C15.5998311,10.828248 14.9017057,11.2129282 14.8219187,11.9418069 L12.6078416,11.9418069 C11.6503981,12.0227934 11.0320584,12.3872273 10.7528041,13.0351195 C10.3538693,12.9541329 10.114512,12.6301917 10.034725,12.0632861 C9.8751511,11.1319411 10.094562,10.565044 10.6929642,10.3625777 C12.2089164,10.1196181 13.4655422,9.81592322 14.4628792,9.45148388 L13.7448001,8.72260884 C13.066611,9.1680347 12.4881642,9.39074429 12.0094424,9.39074429 C11.4110402,9.43123755 11.0320578,9.26926694 10.8724839,8.9048276 C10.4735491,8.13545566 10.5732813,7.52806587 11.1716835,7.08264001 C12.4482749,6.43474785 13.585222,5.72612643 14.582559,4.95675449 C15.1410678,4.51132863 15.7993003,4.410097 16.5572764,4.65305656 C17.0359982,4.8150296 17.3551413,5.07823184 17.5147152,5.44267118 Z M18.3843329,7.38157334 L16.2843329,7.38157334 C16.7372763,7.76252762 17.1078609,8.00062048 17.3960976,8.09585905 C17.5196276,8.03236667 17.766684,7.85776524 18.1372741,7.57204953 L18.3843329,7.38157334 Z M15.4534766,12.8068732 L15.4534766,12.5069823 C15.4937404,11.9871687 15.876241,11.7072733 16.6009899,11.6672876 L17.3257351,11.6672876 C17.8894287,11.7472589 18.2517977,12.0071618 18.412853,12.4470041 L18.412853,12.8068732 L21.4326248,12.8068732 C22.2379013,12.8068732 22.6807968,13.2067238 22.7613244,14.006437 C22.6807968,14.8461359 22.3184278,15.265979 21.6742066,15.265979 L20.5266933,15.265979 C21.0903868,15.6258499 21.9359145,16.0456931 23.0633016,16.525521 C23.1438293,16.5655067 23.2243557,16.5854992 23.3048834,16.5854992 C23.9088408,16.9453701 24.1101569,17.4651759 23.9088377,18.1449321 C23.626991,18.864674 23.1237007,19.1645619 22.3989518,19.044605 C21.191037,18.684734 19.8623507,18.0449731 18.412853,17.1253029 L18.412853,18.6247576 C18.3323253,19.1045856 17.9296931,19.4044735 17.2049442,19.5244305 L16.7217807,19.5244305 C15.9165042,19.4444592 15.4937404,19.1845563 15.4534766,18.744714 L15.4534766,17.1852811 C14.4066171,17.8650373 13.1584572,18.4448207 11.7089595,18.9246486 C10.9842106,19.1245769 10.4809203,18.9846292 10.1990735,18.5048013 C9.87696293,17.7850594 9.91722615,17.1652909 10.3198644,16.6454774 C10.4003921,16.6054917 10.662103,16.5255216 11.1050051,16.4055646 C12.272656,16.005708 13.1181837,15.6258499 13.6416134,15.265979 L12.4337047,15.265979 C11.5881644,15.2259933 11.1855321,14.7661652 11.225796,13.8864806 C11.225796,13.2067244 11.6485598,12.8468589 12.4941001,12.8068732 L15.4534766,12.8068732 Z" id="path-4"></path>
        <filter x="-14.3%" y="-6.7%" width="128.6%" height="126.7%" filterUnits="objectBoundingBox" id="filter-5">
            <feOffset dx="0" dy="1" in="SourceAlpha" result="shadowOffsetOuter1"></feOffset>
            <feGaussianBlur stdDeviation="0.5" in="shadowOffsetOuter1" result="shadowBlurOuter1"></feGaussianBlur>
            <feColorMatrix values="0 0 0 0 0.569511659   0 0 0 0 0.672794337   0 0 0 0 0.756404124  0 0 0 1 0" type="matrix" in="shadowBlurOuter1"></feColorMatrix>
        </filter>
        <filter x="-14.3%" y="-6.7%" width="128.6%" height="126.7%" filterUnits="objectBoundingBox" id="filter-6">
            <feGaussianBlur stdDeviation="0.5" in="SourceAlpha" result="shadowBlurInner1"></feGaussianBlur>
            <feOffset dx="0" dy="-1" in="shadowBlurInner1" result="shadowOffsetInner1"></feOffset>
            <feComposite in="shadowOffsetInner1" in2="SourceAlpha" operator="arithmetic" k2="-1" k3="1" result="shadowInnerInner1"></feComposite>
            <feColorMatrix values="0 0 0 0 0.823529412   0 0 0 0 0.878431373   0 0 0 0 0.91372549  0 0 0 1 0" type="matrix" in="shadowInnerInner1"></feColorMatrix>
        </filter>
    </defs>
    <g id="Show/白条" stroke="none" stroke-width="1" fill="none" fill-rule="evenodd">
        <g id="分组-5-copy-5" transform="translate(22.544868, 22.718754) rotate(-24.000000) translate(-22.544868, -22.718754) translate(4.544868, 6.718754)">
            <path d="M31.8973402,9.92005695 C31.0842115,10.2398356 30.50682,11.0492827 30.50682,11.9973104 C30.50682,13.2252627 31.4755243,14.2207147 32.6704816,14.2207147 C32.6774241,14.2207147 32.684359,14.2206811 32.691286,14.220614 L32.691286,15.5890641 C32.684359,15.588997 32.6774241,15.5889634 32.6704816,15.5889634 C31.4755243,15.5889634 30.50682,16.5844154 30.50682,17.8123677 C30.50682,19.04032 31.4755243,20.035772 32.6704816,20.035772 C32.6774241,20.035772 32.684359,20.0357384 32.691286,20.0356713 L32.691286,21.4041214 C32.684359,21.4040543 32.6774241,21.4040207 32.6704816,21.4040207 C31.4755243,21.4040207 30.50682,22.3994727 30.50682,23.627425 C30.50682,24.5754527 31.0842115,25.3848998 31.8973402,25.7046784 C31.1679375,26.680608 30.0033895,27.3123677 28.691286,27.3123677 L6.69128604,27.3123677 C5.3791826,27.3123677 4.21463455,26.680608 3.48523185,25.7046784 C4.29836062,25.3848998 4.87575206,24.5754527 4.87575206,23.627425 C4.87575206,22.3994727 3.90704777,21.4040207 2.71209048,21.4040207 C2.70514798,21.4040207 2.69821312,21.4040543 2.69128604,21.4041214 L2.69128604,20.0356713 C2.69821312,20.0357384 2.70514798,20.035772 2.71209048,20.035772 C3.90704777,20.035772 4.87575206,19.04032 4.87575206,17.8123677 C4.87575206,16.5844154 3.90704777,15.5889634 2.71209048,15.5889634 C2.70514798,15.5889634 2.69821312,15.588997 2.69128604,15.5890641 L2.69128604,14.220614 C2.69821312,14.2206811 2.70514798,14.2207147 2.71209048,14.2207147 C3.90704777,14.2207147 4.87575206,13.2252627 4.87575206,11.9973104 C4.87575206,11.0492827 4.29836062,10.2398356 3.48523185,9.92005695 C4.21463455,8.94412743 5.3791826,8.3123677 6.69128604,8.3123677 L28.691286,8.3123677 C30.0033895,8.3123677 31.1679375,8.94412743 31.8973402,9.92005695 Z" id="合并形状" fill-opacity="0.3" fill="#ADC1D0" fill-rule="nonzero" transform="translate(17.691286, 17.812368) rotate(17.000000) translate(-17.691286, -17.812368) "></path>
            <mask id="mask-3" fill="white">
                <use xlink:href="#path-2"></use>
            </mask>
            <use id="合并形状" fill="url(#linearGradient-1)" fill-rule="nonzero" xlink:href="#path-2"></use>
            <path d="M5.98433288,2.52443048 L6.6940103,2.52443048 L6.6940103,3.98596894 L5.98433288,3.98596894 L5.98433288,2.52443048 Z M5.98433288,14.2167382 L6.6940103,14.2167382 L6.6940103,15.6782766 L5.98433288,15.6782766 L5.98433288,14.2167382 Z M5.98433288,17.1398151 L6.6940103,17.1398151 L6.6940103,18.6013536 L5.98433288,18.6013536 L5.98433288,17.1398151 Z M5.98433288,20.062892 L6.6940103,20.062892 L6.6940103,21.5244305 L5.98433288,21.5244305 L5.98433288,20.062892 Z M5.98433288,11.2936612 L6.6940103,11.2936612 L6.6940103,12.7551997 L5.98433288,12.7551997 L5.98433288,11.2936612 Z M5.98433288,8.37058433 L6.6940103,8.37058433 L6.6940103,9.83212279 L5.98433288,9.83212279 L5.98433288,8.37058433 Z M5.98433288,5.4475074 L6.6940103,5.4475074 L6.6940103,6.90904586 L5.98433288,6.90904586 L5.98433288,5.4475074 Z M27.2746555,2.52443048 L27.9843329,2.52443048 L27.9843329,3.98596894 L27.2746555,3.98596894 L27.2746555,2.52443048 Z M27.2746555,14.2167382 L27.9843329,14.2167382 L27.9843329,15.6782766 L27.2746555,15.6782766 L27.2746555,14.2167382 Z M27.2746555,17.1398151 L27.9843329,17.1398151 L27.9843329,18.6013536 L27.2746555,18.6013536 L27.2746555,17.1398151 Z M27.2746555,20.062892 L27.9843329,20.062892 L27.9843329,21.5244305 L27.2746555,21.5244305 L27.2746555,20.062892 Z M27.2746555,11.2936612 L27.9843329,11.2936612 L27.9843329,12.7551997 L27.2746555,12.7551997 L27.2746555,11.2936612 Z M27.2746555,8.37058433 L27.9843329,8.37058433 L27.9843329,9.83212279 L27.2746555,9.83212279 L27.2746555,8.37058433 Z M27.2746555,5.4475074 L27.9843329,5.4475074 L27.9843329,6.90904586 L27.2746555,6.90904586 L27.2746555,5.4475074 Z" id="合并形状" fill-opacity="0.6" fill="#FFFFFF" fill-rule="nonzero" mask="url(#mask-3)"></path>
            <g id="条" mask="url(#mask-3)">
                <use fill="black" fill-opacity="1" filter="url(#filter-5)" xlink:href="#path-4"></use>
                <use fill="#FFFFFF" fill-rule="evenodd" xlink:href="#path-4"></use>
                <use fill="black" fill-opacity="1" filter="url(#filter-6)" xlink:href="#path-4"></use>
            </g>
        </g>
    </g>
</svg>