<?xml version="1.0" encoding="UTF-8"?>
<svg width="40px" height="40px" viewBox="0 0 40 40" version="1.1" xmlns="http://www.w3.org/2000/svg" xmlns:xlink="http://www.w3.org/1999/xlink">
    <!-- Generator: Sketch 52.1 (67048) - http://www.bohemiancoding.com/sketch -->
    <title>Show/黄条</title>
    <desc>Created with Sketch.</desc>
    <defs>
        <linearGradient x1="49.9988386%" y1="32.0497493%" x2="49.9988386%" y2="127.138494%" id="linearGradient-1">
            <stop stop-color="#FFB92D" offset="0%"></stop>
            <stop stop-color="#F59500" offset="100%"></stop>
        </linearGradient>
        <path d="M34.6112606,2.77434093 C33.4712691,3.01943025 32.6166962,4.03424195 32.6166962,5.24890218 C32.6166962,6.64672022 33.7484208,7.77987563 35.1444739,7.77987563 L35.1444739,9.33739775 C33.7484208,9.33739775 32.6166962,10.4705532 32.6166962,11.8683712 C32.6166962,13.2661892 33.7484208,14.3993447 35.1444739,14.3993447 L35.1444739,15.9568668 C33.7484208,15.9568668 32.6166962,17.0900222 32.6166962,18.4878402 C32.6166962,19.665317 33.4197491,20.6549936 34.5073862,20.9377457 C33.7952178,22.0408073 32.5551217,22.7710261 31.1444739,22.7710261 L4.14447393,22.7710261 C2.73382612,22.7710261 1.49373005,22.0408073 0.78156162,20.9377457 C1.86919874,20.6549936 2.67225171,19.665317 2.67225171,18.4878402 C2.67225171,17.0900222 1.54052705,15.9568668 0.144473932,15.9568668 L0.144473932,14.3993447 C1.54052705,14.3993447 2.67225171,13.2661892 2.67225171,11.8683712 C2.67225171,10.4705532 1.54052705,9.33739775 0.144473932,9.33739775 L0.144473932,7.77987563 C1.54052705,7.77987563 2.67225171,6.64672022 2.67225171,5.24890218 C2.67225171,4.03424195 1.8176788,3.01943025 0.677687288,2.77434093 C1.36883308,1.57691039 2.66254132,0.771026072 4.14447393,0.771026072 L31.1444739,0.771026072 C32.6264065,0.771026072 33.9201148,1.57691039 34.6112606,2.77434093 Z" id="path-2"></path>
        <path d="M18.4282606,5.84940783 L22.0186559,5.84940783 C22.8165255,5.88990109 23.1157221,6.27458129 22.9162547,7.00345997 C22.5971069,7.93480494 21.9588208,8.90662861 21.0013773,9.91896011 C22.0386077,10.3238927 23.1157156,10.6073413 24.232733,10.7693143 C24.9109222,11.1742469 25.0704937,11.862622 24.7114524,12.8344602 C24.4720915,13.2798861 24.2327342,13.5025957 23.9933733,13.5025957 C23.634332,12.773717 22.9760994,12.3890368 22.0186559,12.3485436 L19.8045788,12.3485436 C19.6450049,11.6196649 18.9867724,11.2349847 17.8298614,11.1944914 C16.5133766,11.2349847 15.8152511,11.6196649 15.7354642,12.3485436 L13.5213871,12.3485436 C12.5639436,12.4295301 11.9456039,12.7939639 11.6663495,13.4418561 C11.2674147,13.3608696 11.0280574,13.0369284 10.9482705,12.4700227 C10.7886966,11.5386777 11.0081074,10.9717806 11.6065096,10.7693143 C13.1224619,10.5263548 14.3790876,10.2226599 15.3764247,9.85822052 L14.6583456,9.12934548 C13.9801564,9.57477134 13.4017096,9.79748093 12.9229879,9.79748093 C12.3245857,9.83797419 11.9456033,9.67600358 11.7860294,9.31156424 C11.3870946,8.5421923 11.4868268,7.93480251 12.085229,7.48937666 C13.3618204,6.8414845 14.4987675,6.13286308 15.4961045,5.36349114 C16.0546132,4.91806528 16.7128458,4.81683365 17.4708219,5.05979321 C17.9495437,5.22176625 18.2686867,5.48496849 18.4282606,5.84940783 Z M19.2978783,7.78830998 L17.1978783,7.78830998 C17.6508218,8.16926427 18.0214063,8.40735712 18.309643,8.50259569 C18.4331731,8.43910331 18.6802294,8.26450188 19.0508195,7.97878617 L19.2978783,7.78830998 Z M16.367022,13.2136099 L16.367022,12.9137189 C16.4072858,12.3939053 16.7897864,12.1140099 17.5145353,12.0740243 L18.2392806,12.0740243 C18.8029741,12.1539956 19.1653431,12.4138985 19.3263984,12.8537407 L19.3263984,13.2136099 L22.3461703,13.2136099 C23.1514468,13.2136099 23.5943422,13.6134605 23.6748699,14.4131737 C23.5943422,15.2528725 23.2319732,15.6727157 22.587752,15.6727157 L21.4402387,15.6727157 C22.0039323,16.0325866 22.8494599,16.4524297 23.9768471,16.9322576 C24.0573747,16.9722433 24.1379012,16.9922358 24.2184288,16.9922358 C24.8223862,17.3521068 25.0237023,17.8719125 24.8223832,18.5516688 C24.5405364,19.2714106 24.0372461,19.5712986 23.3124973,19.4513416 C22.1045825,19.0914707 20.7758962,18.4517097 19.3263984,17.5320395 L19.3263984,19.0314943 C19.2458708,19.5113222 18.8432386,19.8112101 18.1184897,19.9311671 L17.6353262,19.9311671 C16.8300497,19.8511958 16.4072858,19.5912929 16.367022,19.1514507 L16.367022,17.5920177 C15.3201625,18.2717739 14.0720027,18.8515573 12.6225049,19.3313852 C11.8977561,19.5313135 11.3944658,19.3913658 11.112619,18.9115379 C10.7905084,18.191796 10.8307716,17.5720276 11.2334099,17.052214 C11.3139375,17.0122284 11.5756485,16.9322582 12.0185506,16.8123013 C13.1862015,16.4124447 14.0317292,16.0325866 14.5551589,15.6727157 L13.3472502,15.6727157 C12.5017098,15.63273 12.0990776,15.1729018 12.1393414,14.2932173 C12.1393414,13.6134611 12.5621053,13.2535955 13.4076456,13.2136099 L16.367022,13.2136099 Z" id="path-4"></path>
        <filter x="-14.3%" y="-6.7%" width="128.6%" height="126.7%" filterUnits="objectBoundingBox" id="filter-5">
            <feOffset dx="0" dy="1" in="SourceAlpha" result="shadowOffsetOuter1"></feOffset>
            <feGaussianBlur stdDeviation="0.5" in="shadowOffsetOuter1" result="shadowBlurOuter1"></feGaussianBlur>
            <feColorMatrix values="0 0 0 0 0.811755952   0 0 0 0 0.511759187   0 0 0 0 0  0 0 0 1 0" type="matrix" in="shadowBlurOuter1"></feColorMatrix>
        </filter>
        <filter x="-14.3%" y="-6.7%" width="128.6%" height="126.7%" filterUnits="objectBoundingBox" id="filter-6">
            <feGaussianBlur stdDeviation="0.5" in="SourceAlpha" result="shadowBlurInner1"></feGaussianBlur>
            <feOffset dx="0" dy="-1" in="shadowBlurInner1" result="shadowOffsetInner1"></feOffset>
            <feComposite in="shadowOffsetInner1" in2="SourceAlpha" operator="arithmetic" k2="-1" k3="1" result="shadowInnerInner1"></feComposite>
            <feColorMatrix values="0 0 0 0 1   0 0 0 0 0.725490196   0 0 0 0 0.176470588  0 0 0 1 0" type="matrix" in="shadowInnerInner1"></feColorMatrix>
        </filter>
    </defs>
    <g id="Show/黄条" stroke="none" stroke-width="1" fill="none" fill-rule="evenodd">
        <g id="分组-5-copy-4" transform="translate(22.951605, 23.937987) rotate(-24.000000) translate(-22.951605, -23.937987) translate(4.951605, 7.937987)">
            <path d="M32.8108857,10.3267936 C31.9977569,10.6465722 31.4203655,11.4560193 31.4203655,12.4040471 C31.4203655,13.6319993 32.3890698,14.6274513 33.5840271,14.6274513 C33.5909696,14.6274513 33.5979044,14.6274177 33.6048315,14.6273507 L33.6048315,15.9958007 C33.5979044,15.9957337 33.5909696,15.9957001 33.5840271,15.9957001 C32.3890698,15.9957001 31.4203655,16.9911521 31.4203655,18.2191043 C31.4203655,19.4470566 32.3890698,20.4425086 33.5840271,20.4425086 C33.5909696,20.4425086 33.5979044,20.442475 33.6048315,20.4424079 L33.6048315,21.810858 C33.5979044,21.810791 33.5909696,21.8107574 33.5840271,21.8107574 C32.3890698,21.8107574 31.4203655,22.8062094 31.4203655,24.0341616 C31.4203655,24.9821894 31.9977569,25.7916364 32.8108857,26.1114151 C32.081483,27.0873446 30.9169349,27.7191043 29.6048315,27.7191043 L7.6048315,27.7191043 C6.29272806,27.7191043 5.12818001,27.0873446 4.39877731,26.1114151 C5.21190608,25.7916364 5.78929752,24.9821894 5.78929752,24.0341616 C5.78929752,22.8062094 4.82059323,21.8107574 3.62563594,21.8107574 C3.61869344,21.8107574 3.61175858,21.810791 3.6048315,21.810858 L3.6048315,20.4424079 C3.61175858,20.442475 3.61869344,20.4425086 3.62563594,20.4425086 C4.82059323,20.4425086 5.78929752,19.4470566 5.78929752,18.2191043 C5.78929752,16.9911521 4.82059323,15.9957001 3.62563594,15.9957001 C3.61869344,15.9957001 3.61175858,15.9957337 3.6048315,15.9958007 L3.6048315,14.6273507 C3.61175858,14.6274177 3.61869344,14.6274513 3.62563594,14.6274513 C4.82059323,14.6274513 5.78929752,13.6319993 5.78929752,12.4040471 C5.78929752,11.4560193 5.21190608,10.6465722 4.39877731,10.3267936 C5.12818001,9.35086407 6.29272806,8.71910434 7.6048315,8.71910434 L29.6048315,8.71910434 C30.9169349,8.71910434 32.081483,9.35086407 32.8108857,10.3267936 Z" id="合并形状" fill-opacity="0.3" fill="#DC900F" fill-rule="nonzero" transform="translate(18.604831, 18.219104) rotate(17.000000) translate(-18.604831, -18.219104) "></path>
            <mask id="mask-3" fill="white">
                <use xlink:href="#path-2"></use>
            </mask>
            <use id="合并形状" fill="url(#linearGradient-1)" fill-rule="nonzero" xlink:href="#path-2"></use>
            <path d="M7.30461498,2.01762166 L8.0142924,2.01762166 L8.0142924,3.47916013 L7.30461498,3.47916013 L7.30461498,2.01762166 Z M7.30461498,13.7099294 L8.0142924,13.7099294 L8.0142924,15.1714678 L7.30461498,15.1714678 L7.30461498,13.7099294 Z M7.30461498,16.6330063 L8.0142924,16.6330063 L8.0142924,18.0945447 L7.30461498,18.0945447 L7.30461498,16.6330063 Z M7.30461498,19.5560832 L8.0142924,19.5560832 L8.0142924,21.0176217 L7.30461498,21.0176217 L7.30461498,19.5560832 Z M7.30461498,10.7868524 L8.0142924,10.7868524 L8.0142924,12.2483909 L7.30461498,12.2483909 L7.30461498,10.7868524 Z M7.30461498,7.86377551 L8.0142924,7.86377551 L8.0142924,9.32531397 L7.30461498,9.32531397 L7.30461498,7.86377551 Z M7.30461498,4.94069859 L8.0142924,4.94069859 L8.0142924,6.40223705 L7.30461498,6.40223705 L7.30461498,4.94069859 Z M28.5949376,2.01762166 L29.304615,2.01762166 L29.304615,3.47916013 L28.5949376,3.47916013 L28.5949376,2.01762166 Z M28.5949376,13.7099294 L29.304615,13.7099294 L29.304615,15.1714678 L28.5949376,15.1714678 L28.5949376,13.7099294 Z M28.5949376,16.6330063 L29.304615,16.6330063 L29.304615,18.0945447 L28.5949376,18.0945447 L28.5949376,16.6330063 Z M28.5949376,19.5560832 L29.304615,19.5560832 L29.304615,21.0176217 L28.5949376,21.0176217 L28.5949376,19.5560832 Z M28.5949376,10.7868524 L29.304615,10.7868524 L29.304615,12.2483909 L28.5949376,12.2483909 L28.5949376,10.7868524 Z M28.5949376,7.86377551 L29.304615,7.86377551 L29.304615,9.32531397 L28.5949376,9.32531397 L28.5949376,7.86377551 Z M28.5949376,4.94069859 L29.304615,4.94069859 L29.304615,6.40223705 L28.5949376,6.40223705 L28.5949376,4.94069859 Z" id="合并形状" fill-opacity="0.6" fill="#FFFFFF" fill-rule="nonzero" mask="url(#mask-3)"></path>
            <g id="条" mask="url(#mask-3)">
                <use fill="black" fill-opacity="1" filter="url(#filter-5)" xlink:href="#path-4"></use>
                <use fill="#FFFFFF" fill-rule="evenodd" xlink:href="#path-4"></use>
                <use fill="black" fill-opacity="1" filter="url(#filter-6)" xlink:href="#path-4"></use>
            </g>
        </g>
    </g>
</svg>