<?xml version="1.0" encoding="UTF-8"?>
<svg width="40px" height="40px" viewBox="0 0 40 40" version="1.1" xmlns="http://www.w3.org/2000/svg" xmlns:xlink="http://www.w3.org/1999/xlink">
    <!-- Generator: Sketch 52.1 (67048) - http://www.bohemiancoding.com/sketch -->
    <title>Show/商卷</title>
    <desc>Created with Sketch.</desc>
    <defs>
        <linearGradient x1="97.9039634%" y1="94.7766869%" x2="16.1085208%" y2="21.7474254%" id="linearGradient-1">
            <stop stop-color="#00A6F9" offset="0%"></stop>
            <stop stop-color="#0071E2" offset="100%"></stop>
        </linearGradient>
        <path d="M38.3058149,7.48532724 C36.2347471,7.48532724 34.5558149,9.12694982 34.5558149,11.1519939 C34.5558149,13.177038 36.2347471,14.8186606 38.3058149,14.8186606 L38.3058149,18.1519939 C38.3058149,20.3611329 36.5149539,22.1519939 34.3058149,22.1519939 L6.30581488,22.1519939 C4.09667588,22.1519939 2.30581488,20.3611329 2.30581488,18.1519939 L2.30581488,14.8186606 C4.37688269,14.8186606 6.05581488,13.177038 6.05581488,11.1519939 C6.05581488,9.12694982 4.37688269,7.48532724 2.30581488,7.48532724 L2.30581488,4.1519939 C2.30581488,1.9428549 4.09667588,0.151993904 6.30581488,0.151993904 L34.3058149,0.151993904 C36.5149539,0.151993904 38.3058149,1.9428549 38.3058149,4.1519939 L38.3058149,7.48532724 Z" id="path-2"></path>
        <path d="M10.4569592,0.145545947 C11.0092439,0.145545947 11.4569592,0.593261197 11.4569592,1.14554595 L11.4569592,2.64997073 C11.4569592,3.20225548 11.0092439,3.64997073 10.4569592,3.64997073 C9.90467444,3.64997073 9.45695919,3.20225548 9.45695919,2.64997073 L9.45695919,1.14554595 C9.45695919,0.593261197 9.90467444,0.145545947 10.4569592,0.145545947 Z M10.4569592,18.6411212 C11.0092439,18.6411212 11.4569592,19.0888364 11.4569592,19.6411212 L11.4569592,21.1455459 C11.4569592,21.6978307 11.0092439,22.1455459 10.4569592,22.1455459 C9.90467444,22.1455459 9.45695919,21.6978307 9.45695919,21.1455459 L9.45695919,19.6411212 C9.45695919,19.0888364 9.90467444,18.6411212 10.4569592,18.6411212 Z M10.4569592,13.9685548 C11.0092439,13.9685548 11.4569592,14.41627 11.4569592,14.9685548 L11.4569592,16.4729796 C11.4569592,17.0252643 11.0092439,17.4729796 10.4569592,17.4729796 C9.90467444,17.4729796 9.45695919,17.0252643 9.45695919,16.4729796 L9.45695919,14.9685548 C9.45695919,14.41627 9.90467444,13.9685548 10.4569592,13.9685548 Z M10.4569592,9.29598842 C11.0092439,9.29598842 11.4569592,9.74370367 11.4569592,10.2959884 L11.4569592,11.8004132 C11.4569592,12.352698 11.0092439,12.8004132 10.4569592,12.8004132 C9.90467444,12.8004132 9.45695919,12.352698 9.45695919,11.8004132 L9.45695919,10.2959884 C9.45695919,9.74370367 9.90467444,9.29598842 10.4569592,9.29598842 Z M10.4569592,4.62342205 C11.0092439,4.62342205 11.4569592,5.0711373 11.4569592,5.62342205 L11.4569592,7.12784683 C11.4569592,7.68013158 11.0092439,8.12784683 10.4569592,8.12784683 C9.90467444,8.12784683 9.45695919,7.68013158 9.45695919,7.12784683 L9.45695919,5.62342205 C9.45695919,5.0711373 9.90467444,4.62342205 10.4569592,4.62342205 Z" id="path-4"></path>
        <filter x="-25.0%" y="-2.3%" width="150.0%" height="104.5%" filterUnits="objectBoundingBox" id="filter-5">
            <feOffset dx="0" dy="-1" in="SourceAlpha" result="shadowOffsetInner1"></feOffset>
            <feComposite in="shadowOffsetInner1" in2="SourceAlpha" operator="arithmetic" k2="-1" k3="1" result="shadowInnerInner1"></feComposite>
            <feColorMatrix values="0 0 0 0 0   0 0 0 0 0.631372549   0 0 0 0 0.968627451  0 0 0 1 0" type="matrix" in="shadowInnerInner1"></feColorMatrix>
        </filter>
        <path d="M22.474674,17.935008 C23.5093236,17.935008 24.3445996,17.2895336 24.3445996,16.4941164 L24.3445996,13.616438 L28.1096258,13.616438 C29.1518542,13.616438 29.9896063,12.9709637 29.9896063,12.1717307 C29.9896063,11.376458 29.1518542,10.7271678 28.1096258,10.7271678 L24.3445996,10.7271679 L24.3445996,9.2824605 L28.1096258,9.2824605 C29.1518542,9.2824605 29.9896063,8.63889407 29.9896063,7.83966102 C29.9896063,7.04248041 29.1518542,6.39700608 28.1096258,6.39700608 L25.2795624,6.39700608 L27.8651548,4.40088922 C28.595829,3.83806128 28.595829,2.92363208 27.8651548,2.35687271 C27.1346682,1.79404476 25.945367,1.79404476 25.2146928,2.35892515 L22.7339648,4.27219327 L20.2505355,2.35892515 C19.5200489,1.79404476 18.3332239,1.79404476 17.6000735,2.35687271 C16.8671107,2.92363208 16.8671107,3.83806128 17.6000735,4.40088922 L20.1881421,6.39700608 L16.8644844,6.39700608 C15.8322735,6.39700608 14.9896063,7.04248041 14.9896063,7.83966102 C14.9896063,8.63889404 15.8322735,9.2824605 16.8644844,9.2824605 L20.5970946,9.2824605 L20.5970946,10.7271679 L16.8644844,10.7271679 C15.8322735,10.7271679 14.9896063,11.3764869 14.9896063,12.1717307 C14.9896063,12.9709637 15.8322735,13.6164381 16.8644844,13.6164381 L20.5970946,13.6164381 L20.5970946,16.4941164 C20.5996083,17.2895336 21.4398367,17.935008 22.474674,17.935008 Z" id="path-6"></path>
        <filter x="-6.7%" y="-6.2%" width="113.3%" height="112.5%" filterUnits="objectBoundingBox" id="filter-7">
            <feGaussianBlur stdDeviation="0.5" in="SourceAlpha" result="shadowBlurInner1"></feGaussianBlur>
            <feOffset dx="0" dy="-1" in="shadowBlurInner1" result="shadowOffsetInner1"></feOffset>
            <feComposite in="shadowOffsetInner1" in2="SourceAlpha" operator="arithmetic" k2="-1" k3="1" result="shadowInnerInner1"></feComposite>
            <feColorMatrix values="0 0 0 0 0   0 0 0 0 0.623529412   0 0 0 0 0.964705882  0 0 0 1 0" type="matrix" in="shadowInnerInner1"></feColorMatrix>
        </filter>
    </defs>
    <g id="Show/商卷" stroke="none" stroke-width="1" fill="none" fill-rule="evenodd">
        <g id="分组-4" transform="translate(21.032100, 23.498056) rotate(-384.000000) translate(-21.032100, -23.498056) translate(0.532100, 7.998056)">
            <path d="M38.5059592,11.9529824 C36.4348914,11.9529824 34.7559592,13.5946049 34.7559592,15.619649 C34.7559592,17.6446931 36.4348914,19.2863157 38.5059592,19.2863157 L38.5059592,22.619649 C38.5059592,24.828788 36.7150982,26.619649 34.5059592,26.619649 L6.50595922,26.619649 C4.29682022,26.619649 2.50595922,24.828788 2.50595922,22.619649 L2.50595922,19.2863157 C4.57702703,19.2863157 6.25595922,17.6446931 6.25595922,15.619649 C6.25595922,13.5946049 4.57702703,11.9529824 2.50595922,11.9529824 L2.50595922,8.61964902 C2.50595922,6.41051002 4.29682022,4.61964902 6.50595922,4.61964902 L34.5059592,4.61964902 C36.7150982,4.61964902 38.5059592,6.41051002 38.5059592,8.61964902 L38.5059592,11.9529824 Z" id="合并形状" fill-opacity="0.3" fill="#0E5FC9" fill-rule="nonzero" transform="translate(20.505959, 15.619649) rotate(-345.000000) translate(-20.505959, -15.619649) "></path>
            <mask id="mask-3" fill="white">
                <use xlink:href="#path-2"></use>
            </mask>
            <use id="合并形状" fill="url(#linearGradient-1)" fill-rule="nonzero" xlink:href="#path-2"></use>
            <rect id="矩形" fill-opacity="0.8" fill="#115AC3" fill-rule="nonzero" mask="url(#mask-3)" x="0.279126933" y="-2.01781908" width="10" height="25"></rect>
            <path d="M11.3705046,0.55228259 C11.9227894,0.55228259 12.3705046,0.99999784 12.3705046,1.55228259 L12.3705046,3.05670737 C12.3705046,3.60899212 11.9227894,4.05670737 11.3705046,4.05670737 C10.8182199,4.05670737 10.3705046,3.60899212 10.3705046,3.05670737 L10.3705046,1.55228259 C10.3705046,0.99999784 10.8182199,0.55228259 11.3705046,0.55228259 Z M11.3705046,19.0478578 C11.9227894,19.0478578 12.3705046,19.4955731 12.3705046,20.0478578 L12.3705046,21.5522826 C12.3705046,22.1045673 11.9227894,22.5522826 11.3705046,22.5522826 C10.8182199,22.5522826 10.3705046,22.1045673 10.3705046,21.5522826 L10.3705046,20.0478578 C10.3705046,19.4955731 10.8182199,19.0478578 11.3705046,19.0478578 Z M11.3705046,14.3752914 C11.9227894,14.3752914 12.3705046,14.8230067 12.3705046,15.3752914 L12.3705046,16.8797162 C12.3705046,17.432001 11.9227894,17.8797162 11.3705046,17.8797162 C10.8182199,17.8797162 10.3705046,17.432001 10.3705046,16.8797162 L10.3705046,15.3752914 C10.3705046,14.8230067 10.8182199,14.3752914 11.3705046,14.3752914 Z M11.3705046,9.70272507 C11.9227894,9.70272507 12.3705046,10.1504403 12.3705046,10.7027251 L12.3705046,12.2071498 C12.3705046,12.7594346 11.9227894,13.2071498 11.3705046,13.2071498 C10.8182199,13.2071498 10.3705046,12.7594346 10.3705046,12.2071498 L10.3705046,10.7027251 C10.3705046,10.1504403 10.8182199,9.70272507 11.3705046,9.70272507 Z M11.3705046,5.0301587 C11.9227894,5.0301587 12.3705046,5.47787395 12.3705046,6.0301587 L12.3705046,7.53458347 C12.3705046,8.08686822 11.9227894,8.53458347 11.3705046,8.53458347 C10.8182199,8.53458347 10.3705046,8.08686822 10.3705046,7.53458347 L10.3705046,6.0301587 C10.3705046,5.47787395 10.8182199,5.0301587 11.3705046,5.0301587 Z" id="合并形状" fill="#1D6BDB" fill-rule="nonzero" mask="url(#mask-3)"></path>
            <g id="合并形状" fill-rule="nonzero" mask="url(#mask-3)">
                <use fill="#FFFFFF" xlink:href="#path-4"></use>
                <use fill="black" fill-opacity="1" filter="url(#filter-5)" xlink:href="#path-4"></use>
            </g>
            <path d="M23.8439966,19.5451129 C24.947623,19.5451129 25.838584,18.8189543 25.838584,17.9241099 L25.838584,14.6867218 L29.8546119,14.6867218 C30.9663222,14.6867218 31.8599245,13.9605632 31.8599245,13.061426 C31.8599245,12.1667442 30.9663222,11.4362928 29.8546119,11.4362928 L25.838584,11.4362928 L25.838584,9.81099703 L29.8546119,9.81099703 C30.9663222,9.81099703 31.8599245,9.08698479 31.8599245,8.18784761 C31.8599245,7.29101943 30.9663222,6.56486082 29.8546119,6.56486082 L26.8358776,6.56486082 L29.5938428,4.31922934 C30.3732286,3.68604791 30.3732286,2.65731506 29.5938428,2.01971076 C28.8146571,1.38652933 27.5460692,1.38652933 26.7666834,2.02201976 L24.1205736,4.1744464 L21.4715823,2.02201976 C20.6923966,1.38652933 19.42645,1.38652933 18.6444228,2.01971076 C17.8625958,2.65731506 17.8625958,3.68604791 18.6444228,4.31922934 L21.4050294,6.56486082 L17.8597945,6.56486082 C16.7587695,6.56486082 15.8599245,7.29101943 15.8599245,8.18784761 C15.8599245,9.08698476 16.7587695,9.81099703 17.8597945,9.81099703 L21.8412453,9.81099703 L21.8412453,11.4362928 L17.8597945,11.4362928 C16.7587695,11.4362928 15.8599245,12.1667767 15.8599245,13.061426 C15.8599245,13.9605632 16.7587695,14.6867218 17.8597945,14.6867218 L21.8412453,14.6867218 L21.8412453,17.9241099 C21.8439266,18.8189543 22.7401703,19.5451129 23.8439966,19.5451129 Z" id="路径" fill="#1D6BDB" fill-rule="nonzero" mask="url(#mask-3)"></path>
            <g id="路径" fill-rule="nonzero" mask="url(#mask-3)">
                <use fill="#FFFFFF" xlink:href="#path-6"></use>
                <use fill="black" fill-opacity="1" filter="url(#filter-7)" xlink:href="#path-6"></use>
            </g>
        </g>
    </g>
</svg>