<?xml version="1.0" encoding="UTF-8"?>
<svg width="40px" height="40px" viewBox="0 0 40 40" version="1.1" xmlns="http://www.w3.org/2000/svg" xmlns:xlink="http://www.w3.org/1999/xlink">
    <!-- Generator: Sketch 52.1 (67048) - http://www.bohemiancoding.com/sketch -->
    <title>Show/数卷</title>
    <desc>Created with Sketch.</desc>
    <defs>
        <linearGradient x1="109.175618%" y1="105.07487%" x2="41.7541504%" y2="33.6523437%" id="linearGradient-1">
            <stop stop-color="#A7F3CE" offset="0%"></stop>
            <stop stop-color="#61DB99" offset="100%"></stop>
        </linearGradient>
        <path d="M38.3487744,8.17688441 C36.2777066,8.17688441 34.5987744,9.81850699 34.5987744,11.8435511 C34.5987744,13.8685952 36.2777066,15.5102177 38.3487744,15.5102177 L38.3487744,18.8435511 C38.3487744,21.0526901 36.5579134,22.8435511 34.3487744,22.8435511 L6.34877442,22.8435511 C4.13963542,22.8435511 2.34877442,21.0526901 2.34877442,18.8435511 L2.34877442,15.5102177 C4.41984223,15.5102177 6.09877442,13.8685952 6.09877442,11.8435511 C6.09877442,9.81850699 4.41984223,8.17688441 2.34877442,8.17688441 L2.34877442,4.84355107 C2.34877442,2.63441207 4.13963542,0.843551074 6.34877442,0.843551074 L34.3487744,0.843551074 C36.5579134,0.843551074 38.3487744,2.63441207 38.3487744,4.84355107 L38.3487744,8.17688441 Z" id="path-2"></path>
        <path d="M10.4999187,0.837103116 C11.0522035,0.837103116 11.4999187,1.28481837 11.4999187,1.83710312 L11.4999187,3.3415279 C11.4999187,3.89381265 11.0522035,4.3415279 10.4999187,4.3415279 C9.94763398,4.3415279 9.49991873,3.89381265 9.49991873,3.3415279 L9.49991873,1.83710312 C9.49991873,1.28481837 9.94763398,0.837103116 10.4999187,0.837103116 Z M10.4999187,19.3326783 C11.0522035,19.3326783 11.4999187,19.7803936 11.4999187,20.3326783 L11.4999187,21.8371031 C11.4999187,22.3893879 11.0522035,22.8371031 10.4999187,22.8371031 C9.94763398,22.8371031 9.49991873,22.3893879 9.49991873,21.8371031 L9.49991873,20.3326783 C9.49991873,19.7803936 9.94763398,19.3326783 10.4999187,19.3326783 Z M10.4999187,14.660112 C11.0522035,14.660112 11.4999187,15.1078272 11.4999187,15.660112 L11.4999187,17.1645367 C11.4999187,17.7168215 11.0522035,18.1645367 10.4999187,18.1645367 C9.94763398,18.1645367 9.49991873,17.7168215 9.49991873,17.1645367 L9.49991873,15.660112 C9.49991873,15.1078272 9.94763398,14.660112 10.4999187,14.660112 Z M10.4999187,9.98754559 C11.0522035,9.98754559 11.4999187,10.4352608 11.4999187,10.9875456 L11.4999187,12.4919704 C11.4999187,13.0442551 11.0522035,13.4919704 10.4999187,13.4919704 C9.94763398,13.4919704 9.49991873,13.0442551 9.49991873,12.4919704 L9.49991873,10.9875456 C9.49991873,10.4352608 9.94763398,9.98754559 10.4999187,9.98754559 Z M10.4999187,5.31497922 C11.0522035,5.31497922 11.4999187,5.76269447 11.4999187,6.31497922 L11.4999187,7.819404 C11.4999187,8.37168875 11.0522035,8.819404 10.4999187,8.819404 C9.94763398,8.819404 9.49991873,8.37168875 9.49991873,7.819404 L9.49991873,6.31497922 C9.49991873,5.76269447 9.94763398,5.31497922 10.4999187,5.31497922 Z" id="path-4"></path>
        <filter x="-25.0%" y="-2.3%" width="150.0%" height="104.5%" filterUnits="objectBoundingBox" id="filter-5">
            <feOffset dx="0" dy="-1" in="SourceAlpha" result="shadowOffsetInner1"></feOffset>
            <feComposite in="shadowOffsetInner1" in2="SourceAlpha" operator="arithmetic" k2="-1" k3="1" result="shadowInnerInner1"></feComposite>
            <feColorMatrix values="0 0 0 0 0.631372549   0 0 0 0 0.945098039   0 0 0 0 0.788235294  0 0 0 1 0" type="matrix" in="shadowInnerInner1"></feColorMatrix>
        </filter>
        <path d="M23.2278106,19.9900745 C24.2624603,19.9900745 25.0977362,19.304258 25.0977362,18.4591272 L25.0977362,15.401594 L28.8627624,15.401594 C29.9049908,15.401594 30.742743,14.7157775 30.742743,13.8665924 C30.742743,13.0216151 29.9049908,12.3317444 28.8627624,12.3317444 L25.0977362,12.3317444 L25.0977362,10.7967428 L28.8627624,10.7967428 C29.9049908,10.7967428 30.742743,10.1129535 30.742743,9.26376838 C30.742743,8.41676398 29.9049908,7.73094751 28.8627624,7.73094751 L26.0326991,7.73094751 L28.6182914,5.61007334 C29.3489656,5.01206865 29.3489656,4.04048763 28.6182914,3.43830579 C27.8878048,2.8403011 26.6985036,2.8403011 25.9678294,3.44048651 L23.4871015,5.4733339 L21.0036722,3.44048651 C20.2731856,2.8403011 19.0863606,2.8403011 18.3532102,3.43830579 C17.6202474,4.04048763 17.6202474,5.01206865 18.3532102,5.61007334 L20.9412788,7.73094751 L17.6176211,7.73094751 C16.5854101,7.73094751 15.742743,8.41676398 15.742743,9.26376838 C15.742743,10.1129535 16.5854101,10.7967428 17.6176211,10.7967428 L21.3502312,10.7967428 L21.3502312,12.3317444 L17.6176211,12.3317444 C16.5854101,12.3317444 15.742743,13.0216459 15.742743,13.8665924 C15.742743,14.7157775 16.5854101,15.401594 17.6176211,15.401594 L21.3502312,15.401594 L21.3502312,18.4591272 C21.352745,19.304258 22.1929734,19.9900745 23.2278106,19.9900745 Z" id="path-6"></path>
        <filter x="-6.7%" y="-5.9%" width="113.3%" height="111.8%" filterUnits="objectBoundingBox" id="filter-7">
            <feGaussianBlur stdDeviation="0.5" in="SourceAlpha" result="shadowBlurInner1"></feGaussianBlur>
            <feOffset dx="0" dy="-1" in="shadowBlurInner1" result="shadowOffsetInner1"></feOffset>
            <feComposite in="shadowOffsetInner1" in2="SourceAlpha" operator="arithmetic" k2="-1" k3="1" result="shadowInnerInner1"></feComposite>
            <feColorMatrix values="0 0 0 0 0.623529412   0 0 0 0 0.941176471   0 0 0 0 0.784313725  0 0 0 1 0" type="matrix" in="shadowInnerInner1"></feColorMatrix>
        </filter>
    </defs>
    <g id="Show/数卷" stroke="none" stroke-width="1" fill="none" fill-rule="evenodd">
        <g id="分组-4" transform="translate(21.235468, 22.954829) rotate(-384.000000) translate(-21.235468, -22.954829) translate(0.735468, 6.954829)">
            <path d="M38.5489188,12.6445395 C36.4778509,12.6445395 34.7989188,14.2861621 34.7989188,16.3112062 C34.7989188,18.3362503 36.4778509,19.9778729 38.5489188,19.9778729 L38.5489188,23.3112062 C38.5489188,25.5203452 36.7580578,27.3112062 34.5489188,27.3112062 L6.54891876,27.3112062 C4.33977976,27.3112062 2.54891876,25.5203452 2.54891876,23.3112062 L2.54891876,19.9778729 C4.61998657,19.9778729 6.29891876,18.3362503 6.29891876,16.3112062 C6.29891876,14.2861621 4.61998657,12.6445395 2.54891876,12.6445395 L2.54891876,9.31120619 C2.54891876,7.10206719 4.33977976,5.31120619 6.54891876,5.31120619 L34.5489188,5.31120619 C36.7580578,5.31120619 38.5489188,7.10206719 38.5489188,9.31120619 L38.5489188,12.6445395 Z" id="合并形状" fill-opacity="0.3" fill="#29B784" fill-rule="nonzero" transform="translate(20.548919, 16.311206) rotate(-345.000000) translate(-20.548919, -16.311206) "></path>
            <mask id="mask-3" fill="white">
                <use xlink:href="#path-2"></use>
            </mask>
            <use id="合并形状" fill="url(#linearGradient-1)" fill-rule="nonzero" xlink:href="#path-2"></use>
            <rect id="矩形" fill-opacity="0.8" fill="#1CAF7F" fill-rule="nonzero" mask="url(#mask-3)" x="0.0754908805" y="-0.166120862" width="11" height="24"></rect>
            <path d="M11.4134642,1.24383976 C11.9657489,1.24383976 12.4134642,1.69155501 12.4134642,2.24383976 L12.4134642,3.74826454 C12.4134642,4.30054929 11.9657489,4.74826454 11.4134642,4.74826454 C10.8611794,4.74826454 10.4134642,4.30054929 10.4134642,3.74826454 L10.4134642,2.24383976 C10.4134642,1.69155501 10.8611794,1.24383976 11.4134642,1.24383976 Z M11.4134642,19.739415 C11.9657489,19.739415 12.4134642,20.1871302 12.4134642,20.739415 L12.4134642,22.2438398 C12.4134642,22.7961245 11.9657489,23.2438398 11.4134642,23.2438398 C10.8611794,23.2438398 10.4134642,22.7961245 10.4134642,22.2438398 L10.4134642,20.739415 C10.4134642,20.1871302 10.8611794,19.739415 11.4134642,19.739415 Z M11.4134642,15.0668486 C11.9657489,15.0668486 12.4134642,15.5145639 12.4134642,16.0668486 L12.4134642,17.5712734 C12.4134642,18.1235581 11.9657489,18.5712734 11.4134642,18.5712734 C10.8611794,18.5712734 10.4134642,18.1235581 10.4134642,17.5712734 L10.4134642,16.0668486 C10.4134642,15.5145639 10.8611794,15.0668486 11.4134642,15.0668486 Z M11.4134642,10.3942822 C11.9657489,10.3942822 12.4134642,10.8419975 12.4134642,11.3942822 L12.4134642,12.898707 C12.4134642,13.4509918 11.9657489,13.898707 11.4134642,13.898707 C10.8611794,13.898707 10.4134642,13.4509918 10.4134642,12.898707 L10.4134642,11.3942822 C10.4134642,10.8419975 10.8611794,10.3942822 11.4134642,10.3942822 Z M11.4134642,5.72171587 C11.9657489,5.72171587 12.4134642,6.16943112 12.4134642,6.72171587 L12.4134642,8.22614064 C12.4134642,8.77842539 11.9657489,9.22614064 11.4134642,9.22614064 C10.8611794,9.22614064 10.4134642,8.77842539 10.4134642,8.22614064 L10.4134642,6.72171587 C10.4134642,6.16943112 10.8611794,5.72171587 11.4134642,5.72171587 Z" id="合并形状" fill="#29B884" fill-rule="nonzero" mask="url(#mask-3)"></path>
            <g id="合并形状" fill-rule="nonzero" mask="url(#mask-3)">
                <use fill="#FFFFFF" xlink:href="#path-4"></use>
                <use fill="black" fill-opacity="1" filter="url(#filter-5)" xlink:href="#path-4"></use>
            </g>
            <path d="M23.0244423,20.9468472 C24.059092,20.9468472 24.8943679,20.2206886 24.8943679,19.3258442 L24.8943679,16.0884561 L28.6593941,16.0884561 C29.7016225,16.0884561 30.5393747,15.3622975 30.5393747,14.4631603 C30.5393747,13.5684785 29.7016225,12.8380271 28.6593941,12.8380271 L24.8943679,12.8380271 L24.8943679,11.2127313 L28.6593941,11.2127313 C29.7016225,11.2127313 30.5393747,10.4887191 30.5393747,9.58958192 C30.5393747,8.69275374 29.7016225,7.96659512 28.6593941,7.96659512 L25.8293307,7.96659512 L28.4149231,5.72096365 C29.1455973,5.08778221 29.1455973,4.05904937 28.4149231,3.42144507 C27.6844365,2.78826363 26.4951353,2.78826363 25.7644611,3.42375407 L23.2837332,5.57618071 L20.8003039,3.42375407 C20.0698173,2.78826363 18.8829923,2.78826363 18.1498419,3.42144507 C17.4168791,4.05904937 17.4168791,5.08778221 18.1498419,5.72096365 L20.7379105,7.96659512 L17.4142528,7.96659512 C16.3820418,7.96659512 15.5393747,8.69275374 15.5393747,9.58958192 C15.5393747,10.4887191 16.3820418,11.2127313 17.4142528,11.2127313 L21.1468629,11.2127313 L21.1468629,12.8380271 L17.4142528,12.8380271 C16.3820418,12.8380271 15.5393747,13.568511 15.5393747,14.4631603 C15.5393747,15.3622975 16.3820418,16.0884561 17.4142528,16.0884561 L21.1468629,16.0884561 L21.1468629,19.3258442 C21.1493767,20.2206886 21.9896051,20.9468472 23.0244423,20.9468472 Z" id="路径" fill="#2AB885" fill-rule="nonzero" mask="url(#mask-3)"></path>
            <g id="路径" fill-rule="nonzero" mask="url(#mask-3)">
                <use fill="#FFFFFF" xlink:href="#path-6"></use>
                <use fill="black" fill-opacity="1" filter="url(#filter-7)" xlink:href="#path-6"></use>
            </g>
        </g>
    </g>
</svg>