<?xml version="1.0" encoding="UTF-8"?>
<svg width="40px" height="40px" viewBox="0 0 40 40" version="1.1" xmlns="http://www.w3.org/2000/svg" xmlns:xlink="http://www.w3.org/1999/xlink">
    <!-- Generator: Sketch 52.1 (67048) - http://www.bohemiancoding.com/sketch -->
    <title>Show/银卷</title>
    <desc>Created with Sketch.</desc>
    <defs>
        <linearGradient x1="196.427037%" y1="-40.9473526%" x2="-27.9395905%" y2="98.3701121%" id="linearGradient-1">
            <stop stop-color="#C3C3C3" offset="0%"></stop>
            <stop stop-color="#777777" offset="100%"></stop>
        </linearGradient>
        <path d="M36.2750879,8.19078574 C36.2530392,8.19040834 36.2309426,8.19021884 36.2088,8.19021884 C34.1952619,8.19021884 32.5629667,9.75722221 32.5629667,11.6902188 C32.5629667,13.6232155 34.1952619,15.1902188 36.2088,15.1902188 C36.2309426,15.1902188 36.2530392,15.1900293 36.2750879,15.1896519 L36.2750879,18.1902188 C36.2750879,20.3993578 34.4842269,22.1902188 32.2750879,22.1902188 L5.27508791,22.1902188 C3.06594891,22.1902188 1.27508791,20.3993578 1.27508791,18.1902188 L1.27508791,15.1896519 C3.25804106,15.1557103 4.85463336,13.6019585 4.85463336,11.6902188 C4.85463336,9.77847913 3.25804106,8.22472736 1.27508791,8.19078574 L1.27508791,5.19021884 C1.27508791,2.98107984 3.06594891,1.19021884 5.27508791,1.19021884 L32.2750879,1.19021884 C34.4842269,1.19021884 36.2750879,2.98107984 36.2750879,5.19021884 L36.2750879,8.19078574 Z" id="path-2"></path>
        <path d="M9.38300495,1.3871392 C9.9352897,1.3871392 10.3830049,1.83485445 10.3830049,2.3871392 L10.3830049,3.73227195 C10.3830049,4.2845567 9.9352897,4.73227195 9.38300495,4.73227195 C8.8307202,4.73227195 8.38300495,4.2845567 8.38300495,3.73227195 L8.38300495,2.3871392 C8.38300495,1.83485445 8.8307202,1.3871392 9.38300495,1.3871392 Z M9.38300495,19.0420065 C9.9352897,19.0420065 10.3830049,19.4897217 10.3830049,20.0420065 L10.3830049,21.3871392 C10.3830049,21.939424 9.9352897,22.3871392 9.38300495,22.3871392 C8.8307202,22.3871392 8.38300495,21.939424 8.38300495,21.3871392 L8.38300495,20.0420065 C8.38300495,19.4897217 8.8307202,19.0420065 9.38300495,19.0420065 Z M9.38300495,14.5818295 C9.9352897,14.5818295 10.3830049,15.0295447 10.3830049,15.5818295 L10.3830049,16.9269622 C10.3830049,17.479247 9.9352897,17.9269622 9.38300495,17.9269622 C8.8307202,17.9269622 8.38300495,17.479247 8.38300495,16.9269622 L8.38300495,15.5818295 C8.38300495,15.0295447 8.8307202,14.5818295 9.38300495,14.5818295 Z M9.38300495,10.1216525 C9.9352897,10.1216525 10.3830049,10.5693677 10.3830049,11.1216525 L10.3830049,12.4667852 C10.3830049,13.01907 9.9352897,13.4667852 9.38300495,13.4667852 C8.8307202,13.4667852 8.38300495,13.01907 8.38300495,12.4667852 L8.38300495,11.1216525 C8.38300495,10.5693677 8.8307202,10.1216525 9.38300495,10.1216525 Z M9.38300495,5.66147549 C9.9352897,5.66147549 10.3830049,6.10919074 10.3830049,6.66147549 L10.3830049,8.00660823 C10.3830049,8.55889298 9.9352897,9.00660823 9.38300495,9.00660823 C8.8307202,9.00660823 8.38300495,8.55889298 8.38300495,8.00660823 L8.38300495,6.66147549 C8.38300495,6.10919074 8.8307202,5.66147549 9.38300495,5.66147549 Z" id="path-4"></path>
        <filter x="-25.0%" y="-2.4%" width="150.0%" height="104.8%" filterUnits="objectBoundingBox" id="filter-5">
            <feOffset dx="0" dy="-1" in="SourceAlpha" result="shadowOffsetInner1"></feOffset>
            <feComposite in="shadowOffsetInner1" in2="SourceAlpha" operator="arithmetic" k2="-1" k3="1" result="shadowInnerInner1"></feComposite>
            <feColorMatrix values="0 0 0 0 0.615686275   0 0 0 0 0.615686275   0 0 0 0 0.615686275  0 0 0 1 0" type="matrix" in="shadowInnerInner1"></feColorMatrix>
        </filter>
        <path d="M23.431179,19.0333018 C24.4658286,19.0333018 25.3011046,18.3878274 25.3011046,17.5924102 L25.3011046,14.7147319 L29.0661308,14.7147319 C30.1083592,14.7147319 30.9461113,14.0692575 30.9461113,13.2700245 C30.9461113,12.4747518 30.1083592,11.8254617 29.0661308,11.8254617 L25.3011046,11.8254617 L25.3011046,10.3807543 L29.0661308,10.3807543 C30.1083592,10.3807543 30.9461113,9.73718788 30.9461113,8.93795483 C30.9461113,8.14077422 30.1083592,7.4952999 29.0661308,7.4952999 L26.2360674,7.4952999 L28.8216598,5.49918303 C29.552334,4.93635509 29.552334,4.02192589 28.8216598,3.45516652 C28.0911732,2.89233858 26.901872,2.89233858 26.1711978,3.45721896 L23.6904698,5.37048708 L21.2070405,3.45721896 C20.4765539,2.89233858 19.2897289,2.89233858 18.5565785,3.45516652 C17.8236157,4.02192589 17.8236157,4.93635509 18.5565785,5.49918303 L21.1446471,7.4952999 L17.8209894,7.4952999 C16.7887785,7.4952999 15.9461113,8.14077422 15.9461113,8.93795483 C15.9461113,9.73718785 16.7887785,10.3807543 17.8209894,10.3807543 L21.5535996,10.3807543 L21.5535996,11.8254617 L17.8209894,11.8254617 C16.7887785,11.8254617 15.9461113,12.4747807 15.9461113,13.2700245 C15.9461113,14.0692575 16.7887785,14.7147319 17.8209894,14.7147319 L21.5535996,14.7147319 L21.5535996,17.5924102 C21.5561133,18.3878274 22.3963417,19.0333018 23.431179,19.0333018 Z" id="path-6"></path>
        <filter x="-6.7%" y="-6.2%" width="113.3%" height="112.5%" filterUnits="objectBoundingBox" id="filter-7">
            <feGaussianBlur stdDeviation="0.5" in="SourceAlpha" result="shadowBlurInner1"></feGaussianBlur>
            <feOffset dx="0" dy="-1" in="shadowBlurInner1" result="shadowOffsetInner1"></feOffset>
            <feComposite in="shadowOffsetInner1" in2="SourceAlpha" operator="arithmetic" k2="-1" k3="1" result="shadowInnerInner1"></feComposite>
            <feColorMatrix values="0 0 0 0 0.611764706   0 0 0 0 0.611764706   0 0 0 0 0.611764706  0 0 0 1 0" type="matrix" in="shadowInnerInner1"></feColorMatrix>
        </filter>
    </defs>
    <g id="Show/银卷" stroke="none" stroke-width="1" fill="none" fill-rule="evenodd">
        <g id="分组-4" transform="translate(21.575327, 22.294687) rotate(-384.000000) translate(-21.575327, -22.294687) translate(1.575327, 6.794687)">
            <path d="M37.7955144,12.1510651 C35.7819762,12.1510651 34.149681,13.7180685 34.149681,15.6510651 C34.149681,17.5840618 35.7819762,19.1510651 37.7955144,19.1510651 L37.7955144,22.1510651 C37.7955144,24.3602041 36.0046534,26.1510651 33.7955144,26.1510651 L6.79551435,26.1510651 C4.58637535,26.1510651 2.79551435,24.3602041 2.79551435,22.1510651 L2.79551435,19.1510651 C4.8090525,19.1510651 6.44134769,17.5840618 6.44134769,15.6510651 C6.44134769,13.7180685 4.8090525,12.1510651 2.79551435,12.1510651 L2.79551435,9.15106514 C2.79551435,6.94192614 4.58637535,5.15106514 6.79551435,5.15106514 L33.7955144,5.15106514 C36.0046534,5.15106514 37.7955144,6.94192614 37.7955144,9.15106514 L37.7955144,12.1510651 Z" id="合并形状" fill-opacity="0.3" fill="#6C6C6C" fill-rule="nonzero" transform="translate(20.295514, 15.651065) rotate(-345.000000) translate(-20.295514, -15.651065) "></path>
            <mask id="mask-3" fill="white">
                <use xlink:href="#path-2"></use>
            </mask>
            <use id="合并形状" fill="url(#linearGradient-1)" fill-rule="nonzero" xlink:href="#path-2"></use>
            <rect id="矩形" fill-opacity="0.8" fill="#666666" fill-rule="nonzero" mask="url(#mask-3)" x="-0.794827306" y="-0.776225827" width="10" height="24"></rect>
            <path d="M10.2965504,1.79387585 C10.8488352,1.79387585 11.2965504,2.2415911 11.2965504,2.79387585 L11.2965504,4.13900859 C11.2965504,4.69129334 10.8488352,5.13900859 10.2965504,5.13900859 C9.74426565,5.13900859 9.2965504,4.69129334 9.2965504,4.13900859 L9.2965504,2.79387585 C9.2965504,2.2415911 9.74426565,1.79387585 10.2965504,1.79387585 Z M10.2965504,19.4487431 C10.8488352,19.4487431 11.2965504,19.8964584 11.2965504,20.4487431 L11.2965504,21.7938758 C11.2965504,22.3461606 10.8488352,22.7938758 10.2965504,22.7938758 C9.74426565,22.7938758 9.2965504,22.3461606 9.2965504,21.7938758 L9.2965504,20.4487431 C9.2965504,19.8964584 9.74426565,19.4487431 10.2965504,19.4487431 Z M10.2965504,14.9885661 C10.8488352,14.9885661 11.2965504,15.4362814 11.2965504,15.9885661 L11.2965504,17.3336989 C11.2965504,17.8859836 10.8488352,18.3336989 10.2965504,18.3336989 C9.74426565,18.3336989 9.2965504,17.8859836 9.2965504,17.3336989 L9.2965504,15.9885661 C9.2965504,15.4362814 9.74426565,14.9885661 10.2965504,14.9885661 Z M10.2965504,10.5283891 C10.8488352,10.5283891 11.2965504,10.9761044 11.2965504,11.5283891 L11.2965504,12.8735219 C11.2965504,13.4258066 10.8488352,13.8735219 10.2965504,13.8735219 C9.74426565,13.8735219 9.2965504,13.4258066 9.2965504,12.8735219 L9.2965504,11.5283891 C9.2965504,10.9761044 9.74426565,10.5283891 10.2965504,10.5283891 Z M10.2965504,6.06821213 C10.8488352,6.06821213 11.2965504,6.51592738 11.2965504,7.06821213 L11.2965504,8.41334487 C11.2965504,8.96562962 10.8488352,9.41334487 10.2965504,9.41334487 C9.74426565,9.41334487 9.2965504,8.96562962 9.2965504,8.41334487 L9.2965504,7.06821213 C9.2965504,6.51592738 9.74426565,6.06821213 10.2965504,6.06821213 Z" id="合并形状" fill="#6C6C6C" fill-rule="nonzero" mask="url(#mask-3)"></path>
            <g id="合并形状" fill-rule="nonzero" mask="url(#mask-3)">
                <use fill="#FFFFFF" xlink:href="#path-4"></use>
                <use fill="black" fill-opacity="1" filter="url(#filter-5)" xlink:href="#path-4"></use>
            </g>
            <path d="M22.5666741,20.7434789 C23.6703004,20.7434789 24.5612614,20.0173203 24.5612614,19.1224759 L24.5612614,15.8850878 L28.5772894,15.8850878 C29.6889996,15.8850878 30.582602,15.1589291 30.582602,14.259792 C30.582602,13.3651102 29.6889996,12.6346588 28.5772894,12.6346588 L24.5612614,12.6346588 L24.5612614,11.009363 L28.5772894,11.009363 C29.6889996,11.009363 30.582602,10.2853508 30.582602,9.3862136 C30.582602,8.48938542 29.6889996,7.7632268 28.5772894,7.7632268 L25.5585551,7.7632268 L28.3165203,5.51759533 C29.0959061,4.88441389 29.0959061,3.85568104 28.3165203,3.21807675 C27.5373346,2.58489531 26.2687466,2.58489531 25.4893608,3.22038575 L22.843251,5.37281239 L20.1942597,3.22038575 C19.4150741,2.58489531 18.1491274,2.58489531 17.3671003,3.21807675 C16.5852733,3.85568104 16.5852733,4.88441389 17.3671003,5.51759533 L20.1277068,7.7632268 L16.5824719,7.7632268 C15.4814469,7.7632268 14.582602,8.48938542 14.582602,9.3862136 C14.582602,10.2853507 15.4814469,11.009363 16.5824719,11.009363 L20.5639227,11.009363 L20.5639227,12.6346588 L16.5824719,12.6346588 C15.4814469,12.6346588 14.582602,13.3651427 14.582602,14.259792 C14.582602,15.1589291 15.4814469,15.8850878 16.5824719,15.8850878 L20.5639227,15.8850878 L20.5639227,19.1224759 C20.5666041,20.0173203 21.4628477,20.7434789 22.5666741,20.7434789 Z" id="路径" fill="#6C6C6C" fill-rule="nonzero" mask="url(#mask-3)"></path>
            <g id="路径" fill-rule="nonzero" mask="url(#mask-3)">
                <use fill="#FFFFFF" xlink:href="#path-6"></use>
                <use fill="black" fill-opacity="1" filter="url(#filter-7)" xlink:href="#path-6"></use>
            </g>
        </g>
    </g>
</svg>